<?xml version="1.0" encoding="utf-8"?>
<!-- Generator: Adobe Illustrator 26.0.3, SVG Export Plug-In . SVG Version: 6.00 Build 0)  -->
<svg version="1.1" id="Layer_1" xmlns="http://www.w3.org/2000/svg" xmlns:xlink="http://www.w3.org/1999/xlink" x="0px" y="0px"
	 viewBox="0 0 256 256" style="enable-background:new 0 0 256 256;" xml:space="preserve">
<style type="text/css">
	.st0{fill:#FFFFFF;}
	.st1{fill:#2684FF;}
	.st2{fill:url(#SVGID_1_);}
	.st3{fill:url(#SVGID_00000000936742301862587750000000200923000498298549_);}
</style>
<rect class="st0" width="256" height="256"/>
<g>
	<path class="st1" d="M191.9,124.2l-58.3-58.3l-5.6-5.6l-43.9,43.9l-20.1,20.1c-2.1,2.1-2.1,5.5,0,7.6l40.1,40.1l23.9,23.8
		l43.9-43.9l0.7-0.7l19.4-19.3C194,129.7,194,126.3,191.9,124.2C191.9,124.2,191.9,124.2,191.9,124.2L191.9,124.2z M128,148l-20-20
		l20-20l20,20L128,148z"/>
	
		<linearGradient id="SVGID_1_" gradientUnits="userSpaceOnUse" x1="-36.8309" y1="70.5914" x2="-39.3664" y2="73.1264" gradientTransform="matrix(11.028 0 0 11.028 530.5826 -690.7635)">
		<stop  offset="0.18" style="stop-color:#0052CC"/>
		<stop  offset="1" style="stop-color:#2684FF"/>
	</linearGradient>
	<path class="st2" d="M128,108c-13.1-13.1-13.2-34.3-0.1-47.5L84,104.2l23.8,23.8L128,108z"/>
	
		<linearGradient id="SVGID_00000134943660294217192380000016672640005845745833_" gradientUnits="userSpaceOnUse" x1="-36.1595" y1="77.8749" x2="-33.6289" y2="75.3449" gradientTransform="matrix(11.028 0 0 11.028 530.5826 -690.7635)">
		<stop  offset="0.18" style="stop-color:#0052CC"/>
		<stop  offset="1" style="stop-color:#2684FF"/>
	</linearGradient>
	<path style="fill:url(#SVGID_00000134943660294217192380000016672640005845745833_);" d="M148.1,127.9L128,148
		c13.2,13.2,13.2,34.5,0,47.7l43.9-43.9L148.1,127.9z"/>
</g>
</svg>
